<?xml version="1.0" encoding="utf-8"?>
<!-- Generator: Adobe Illustrator 24.3.0, SVG Export Plug-In . SVG Version: 6.00 Build 0)  -->
<svg version="1.1"
	 id="Layer_1" xmlns:cc="http://creativecommons.org/ns#" xmlns:dc="http://purl.org/dc/elements/1.1/" xmlns:rdf="http://www.w3.org/1999/02/22-rdf-syntax-ns#"
	 xmlns="http://www.w3.org/2000/svg" xmlns:xlink="http://www.w3.org/1999/xlink" x="0px" y="0px" viewBox="0 0 161.8 169.4"
	 style="enable-background:new 0 0 161.8 169.4;" xml:space="preserve">
<style type="text/css">
	.st0{fill:url(#SVGID_1_);}
	.st1{fill:url(#SVGID_2_);}
	.st2{fill:url(#SVGID_3_);}
	.st3{fill:none;}
	.st4{fill:url(#SVGID_4_);}
	.st5{fill:url(#SVGID_5_);}
	.st6{fill:url(#SVGID_6_);}
	.st7{fill:url(#SVGID_7_);}
	.st8{fill:url(#SVGID_8_);}
</style>
<linearGradient id="SVGID_1_" gradientUnits="userSpaceOnUse" x1="-197.7698" y1="92.4604" x2="-189.1255" y2="110.483" gradientTransform="matrix(-1.6239 -0.7806 0.6278 -2.0192 -326.0977 207.4752)">
	<stop  offset="0" style="stop-color:#387EB8"/>
	<stop  offset="1" style="stop-color:#366994"/>
</linearGradient>
<path class="st0" d="M16.9,145.8c4,6.8,10.2,9.7,17.3,10c17.8,0.8,42.8-15.9,54.2-29.9c-0.3-0.4-9.4-12.7-22.5,2.3
	c-15.4,13.6-30.2,12.9-36.9,5.4c-10-11.3-2-30.8,9.8-49.1c4.2-6.6,15.4-18.3,17.2-20.8c-1.6,0-3,0.1-4.8,0
	C36.5,78.6-2,120,16.9,145.8L16.9,145.8L16.9,145.8z"/>
<linearGradient id="SVGID_2_" gradientUnits="userSpaceOnUse" x1="-185.4709" y1="127.9169" x2="-171.1162" y2="125.9336" gradientTransform="matrix(0.4245 -2.0995 1.6884 0.5278 -81.1677 -376.1523)">
	<stop  offset="0" style="stop-color:#387EB8"/>
	<stop  offset="1" style="stop-color:#366994"/>
</linearGradient>
<path class="st1" d="M21.7,50.2C3.3,72.1,30.7,121.1,48.7,139c8.3,9,6.3-2.5,19.7-0.3C56.2,120,24.7,88.8,33.3,66.2
	c6.6-16,23.9-8.7,40,3.6c11.5,8.8,8.9,7.8,23.7,20.1C86.5,70.4,41.3,26.7,21.7,50.2L21.7,50.2z"/>
<linearGradient id="SVGID_3_" gradientUnits="userSpaceOnUse" x1="-13.1946" y1="2297.8887" x2="35.4736" y2="2303.502" gradientTransform="matrix(1.1407 0 0 -0.8865 89.0257 2162.2229)">
	<stop  offset="0" style="stop-color:#387EB8"/>
	<stop  offset="1" style="stop-color:#366994"/>
</linearGradient>
<path class="st2" d="M109.1,117.6c2.9-2.1,4.5-4.7,5.7-6.6c0.9,1.5,6.9,13.4,6.9,15c-0.5,0.5-5.7,4.2-8.9,6.1
	C112.5,127,111.3,123.6,109.1,117.6L109.1,117.6z"/>
<path class="st3" d="M17.6,0h144.2v144.2H17.6V0z"/>
<path d="M58.3,99.5v19.4h19.4l57.3-57.3l-19.4-19.4L58.3,99.5z M150.1,46.6c2-2,2-5.3,0-7.3L138,27.2c-2-2-5.3-2-7.3,0l-9.5,9.5
	l19.4,19.4C140.6,56.1,150.1,46.6,150.1,46.6z"/>
<linearGradient id="SVGID_4_" gradientUnits="userSpaceOnUse" x1="27.8266" y1="110.1088" x2="78.3938" y2="107.5071">
	<stop  offset="0" style="stop-color:#FFE052"/>
	<stop  offset="1" style="stop-color:#FFC331"/>
</linearGradient>
<path class="st4" d="M46.8,130.4v-5.7c-14-2.5-26.6-7.2-29.6-18.6c-3.6-15.7,13.3-23.7,31.9-27.4c8.8-1.7,10.7-1.7,16-2.3l3.3-3.3
	C45.1,70.9,2,77.4,0.1,103.9v0c-2.1,28.6,44.6,41.3,67.6,40c10.4,0,4.1-5.7,12.9-13.5H46.8z"/>
<g>
	<linearGradient id="SVGID_5_" gradientUnits="userSpaceOnUse" x1="69.3611" y1="51.5753" x2="105.6528" y2="49.7082">
		<stop  offset="0" style="stop-color:#FFE052"/>
		<stop  offset="1" style="stop-color:#FFC331"/>
	</linearGradient>
	<path class="st5" d="M71.7,53.1c9.6-4.8,16.1-5.4,20.6-3.8L103.6,38C85,35.4,54.7,59.8,50.2,64.8c3.4-0.6,2.5-0.5,5.9-1.1
		C61.8,57.5,66.9,55.5,71.7,53.1z"/>
</g>
<linearGradient id="SVGID_6_" gradientUnits="userSpaceOnUse" x1="78.5525" y1="162.0706" x2="107.9584" y2="103.5394">
	<stop  offset="0" style="stop-color:#FFE052"/>
	<stop  offset="1" style="stop-color:#FFC331"/>
</linearGradient>
<path class="st6" d="M109.8,103.2l-4.7,4.7c8.1,15,11.9,29.7,3.7,38.9c-13.4,13.3-33.4-3.7-45.3-16.4h-10c-0.7,4.4-1.5,8.9-1.9,10.9
	c16.4,20,55.4,41.2,69.4,17.6l0,0C128.4,139.6,120.6,119.6,109.8,103.2z"/>
<g>
	<linearGradient id="SVGID_7_" gradientUnits="userSpaceOnUse" x1="87.2532" y1="136.3038" x2="116.8235" y2="89.7057">
		<stop  offset="0" style="stop-color:#387EB8"/>
		<stop  offset="1" style="stop-color:#366994"/>
	</linearGradient>
	<path class="st7" d="M132.5,103.6c-0.6-6-3.6-10.9-8.3-14.8L116,97c0.9,2.3,1.2,4.8,0.8,7.5c-1.9,12.8-14.1,18.7-29.3,20.9l-5,5
		H61.2c1,0.4,1.2,1.6-1.4,5c5.1,4.4,0,0,11.3,8C94.1,144.7,134.7,127.9,132.5,103.6L132.5,103.6z"/>
	<linearGradient id="SVGID_8_" gradientUnits="userSpaceOnUse" x1="61.3213" y1="75.5096" x2="64.3898" y2="70.6741">
		<stop  offset="0" style="stop-color:#387EB8"/>
		<stop  offset="1" style="stop-color:#366994"/>
	</linearGradient>
	<path class="st8" d="M64.5,77.1l4.3-4.3c-4.5-0.2-8.4-0.2-11.5-0.1c2.8,3.4,0.9,1.1,3.4,4.1C61.5,77,62.8,77.1,64.5,77.1z"/>
</g>
</svg>
